<svg width="40" height="40" viewBox="0 0 40 40" fill="none" xmlns="http://www.w3.org/2000/svg">
<rect width="40" height="40" rx="10" fill="#FE66B1"/>
<path d="M22.125 9.34375C22.125 8.72215 21.9011 8.12601 21.5026 7.68647C21.1041 7.24693 20.5636 7 20 7C19.4364 7 18.8959 7.24693 18.4974 7.68647C18.0989 8.12601 17.875 8.72215 17.875 9.34375C17.875 9.96535 18.0989 10.5615 18.4974 11.001C18.8959 11.4406 19.4364 11.6875 20 11.6875C20.5636 11.6875 21.1041 11.4406 21.5026 11.001C21.9011 10.5615 22.125 9.96535 22.125 9.34375ZM10.65 17.3125C11.2136 17.3125 11.7541 17.0656 12.1526 16.626C12.5511 16.1865 12.775 15.5904 12.775 14.9688C12.775 14.3471 12.5511 13.751 12.1526 13.3115C11.7541 12.8719 11.2136 12.625 10.65 12.625C10.0864 12.625 9.54591 12.8719 9.1474 13.3115C8.74888 13.751 8.525 14.3471 8.525 14.9688C8.525 15.5904 8.74888 16.1865 9.1474 16.626C9.54591 17.0656 10.0864 17.3125 10.65 17.3125ZM4.7 29.5C3.75969 29.5 3 30.3379 3 31.375C3 32.4121 3.75969 33.25 4.7 33.25H35.3C36.2403 33.25 37 32.4121 37 31.375C37 30.3379 36.2403 29.5 35.3 29.5H4.7ZM29.35 17.3125C29.9136 17.3125 30.4541 17.0656 30.8526 16.626C31.2511 16.1865 31.475 15.5904 31.475 14.9688C31.475 14.3471 31.2511 13.751 30.8526 13.3115C30.4541 12.8719 29.9136 12.625 29.35 12.625C28.7864 12.625 28.2459 12.8719 27.8474 13.3115C27.4489 13.751 27.225 14.3471 27.225 14.9688C27.225 15.5904 27.4489 16.1865 27.8474 16.626C28.2459 17.0656 28.7864 17.3125 29.35 17.3125ZM13.625 23.4941L15.0541 26.418C15.3888 27.1035 16.1591 27.3555 16.7806 26.9922C17.4022 26.6289 17.6306 25.7734 17.3013 25.0879L15.3728 21.1328C15.4631 21.0332 15.5428 20.9219 15.6013 20.793L17.025 17.8691V21.0625C17.025 22.0996 17.7847 22.9375 18.725 22.9375H21.275C22.2153 22.9375 22.975 22.0996 22.975 21.0625V17.8691L24.4041 20.793C24.4678 20.9219 24.5422 21.0332 24.6325 21.1328L22.7041 25.0879C22.3694 25.7734 22.6031 26.623 23.2247 26.9922C23.8463 27.3613 24.6166 27.1035 24.9513 26.418L26.375 23.4941V25.75C26.375 26.7871 27.1347 27.625 28.075 27.625H30.625C31.5653 27.625 32.325 26.7871 32.325 25.75V23.4941L33.7541 26.418C34.0888 27.1035 34.8591 27.3555 35.4806 26.9922C36.1022 26.6289 36.3306 25.7734 36.0013 25.0879L33.9878 20.9688C33.175 19.2988 31.5919 18.2559 29.8706 18.2559H28.8347C27.9688 18.2559 27.14 18.5195 26.4228 18.9941L24.6378 15.3438C23.825 13.6738 22.2419 12.6309 20.5206 12.6309H19.4847C17.7634 12.6309 16.1856 13.6738 15.3675 15.3438L13.5825 18.9941C12.8653 18.5195 12.0366 18.2559 11.1706 18.2559H10.1347C8.41344 18.2559 6.83562 19.2988 6.0175 20.9688L4.00406 25.082C3.66938 25.7676 3.90313 26.6172 4.52469 26.9863C5.14625 27.3555 5.91656 27.0977 6.25125 26.4121L7.675 23.4941V25.75C7.675 26.7871 8.43469 27.625 9.375 27.625H11.925C12.8653 27.625 13.625 26.7871 13.625 25.75V23.4941Z" fill="#F8F8F8"/>
</svg>
